<svg xmlns="http://www.w3.org/2000/svg" viewBox="0 0 512 512"><path d="M512 402.28c0 16.716-13.55 30.267-30.265 30.267H30.265C13.55 432.55 0 418.997 0 402.28V109.717C0 93.002 13.55 79.45 30.265 79.45h451.47c16.716 0 30.265 13.55 30.265 30.266V402.28z" fill="#306fc5"/><path d="M21.517 402.28V109.717c0-16.715 13.552-30.266 30.267-30.266h-21.52C13.55 79.45 0 93 0 109.717v292.565c0 16.716 13.55 30.267 30.265 30.267h21.52c-16.715 0-30.268-13.552-30.268-30.268z" opacity=".15" fill="#202121"/><path d="M74.6 220.748h15.298l-7.647-19.47zm81.346 65.36v9.04h25.73v9.737h-25.73v10.433h28.5l13.2-14.606-12.515-14.605zm200.952-84.83l-8.345 19.47h15.995zm-126.55 119.597V281.24l-18.08 19.47zm34.072-28.507c-.696-4.172-3.48-6.26-7.654-6.26h-14.6v12.516h15.3c4.17.001 6.954-2.084 6.954-6.255zm48.68 4.868c1.4-.697 2.1-2.785 2.1-4.867.696-2.78-.698-4.172-2.1-4.868s-3.476-.696-5.56-.696h-13.9v11.127h13.9c2.083 0 4.172 0 5.56-.696zm100.117-114.038v8.344l-4.17-8.344H376.37v8.344l-4.174-8.344h-44.502c-7.648 0-13.9 1.392-19.47 4.173v-4.173h-31.3v4.173c-3.476-2.78-7.648-4.173-13.2-4.173h-111.95l-7.652 17.384-7.647-17.384h-35.462v8.344l-3.477-8.344H66.942l-13.9 32.68-16.285 36.16h36.2l.252-.697 4.174-10.428h9.04l4.172 11.125h40.326v-8.344l3.48 8.343h20.163l3.475-8.343v8.344h96.654v-18.08h1.394c1.4 0 1.4 0 1.4 2.087v15.297h50.065v-4.172c4.172 2.1 10.426 4.172 18.77 4.172h20.863l4.172-11.123h9.732l4.172 11.123h40.328v-10.428l6.26 10.428h32.68V183.2h-31.293zM177.5 241.6h-11.126v-38.245l-.696 1.595v-.02l-16.176 36.67h-10.248l-16.687-38.245V241.6h-23.64l-4.867-10.43H70.417L65.55 241.6H53.326l20.57-48.675h17.382l19.47 46.587v-46.587h18.422l.328.697h.024l8.773 19.094 6.3 14.306.223-.72 13.906-33.375H177.5V241.6zm47.98-38.245h-27.12v9.04h26.423v9.734H198.36v9.738h27.12v10.427h-38.94v-49.367h38.94v10.43zm49.595 17.93c.018.016.04.027.063.042.263.278.488.557.68.824 1.332 1.746 2.4 4.343 2.463 8.15l.01.197c0 .038.007.07.007.1 0 .022-.002.04-.002.06a28.32 28.32 0 0 1 .026 1.197v9.735h-10.428v-5.565c0-2.78 0-6.954-2.1-9.735-.657-.657-1.322-1.1-2.046-1.398-1.042-.675-3.017-.686-6.295-.686h-12.52V241.6h-11.818v-48.675h26.425c6.254 0 10.428 0 13.906 2.086 3.407 2.046 5.465 5.44 5.543 10.812-.16 7.4-4.9 11.46-8.326 12.83 0 0 2.32.467 4.4 2.632zM298.5 241.6h-11.82v-48.675h11.822V241.6zm135.592 0h-15.3l-22.25-36.855v30.595l-.073-.072v6.362h-11.747v-.03H372.9l-4.172-10.43h-24.34l-4.172 11.123h-13.2c-5.56 0-12.517-1.4-16.687-5.56s-6.256-9.735-6.256-18.773c0-6.953 1.4-13.9 6.256-19.472 3.474-4.175 9.735-5.562 17.382-5.562h11.128v10.43H327.7c-4.172 0-6.254.693-9.04 2.783-2.082 2.085-3.474 6.256-3.474 11.123 0 5.564.696 9.04 3.474 11.82 2.1 2.1 4.87 2.785 8.346 2.785h4.867l16-38.243h17.385l19.472 46.587v-46.586h17.382l20.16 34.07v-34.07h11.826V241.6zM265.16 213.207c.203-.217.387-.463.543-.745.63-.997 1.352-2.793.963-5.244-.016-.225-.057-.433-.105-.634-.013-.056-.01-.105-.026-.16l-.007.001c-.346-1.2-1.23-1.923-2.1-2.367-1.394-.693-3.48-.693-5.565-.693h-13.9v11.127h13.9c2.085 0 4.172 0 5.565-.697.2-.106.395-.25.574-.413l.002.01.166-.183zm209.945 97.937c0-4.867-1.4-9.736-3.474-13.212v-31.3h-.032v-2.1h-33.483c-4.336 0-9.598 4.17-9.598 4.17v-4.17h-31.984c-4.87 0-11.124 1.392-13.9 4.17v-4.17H325.6v4.17c-4.17-3.474-11.824-4.17-15.298-4.17h-37.55v4.17c-3.476-3.474-11.824-4.17-15.998-4.17H215.05l-9.737 10.43-9.04-10.43h-62.578v70.233h61.2l10.054-10.057 8.715 10.057h38.942v-15.992h3.48c4.863 0 11.124 0 16-2.1v18.776h31.3V317.4h1.387c2.1 0 2.1 0 2.1 2.086v15.994h94.563c6.263 0 12.517-1.394 15.993-4.175v4.175H447.3c6.254 0 12.517-.695 16.7-3.478 6.402-3.84 10.437-10.64 11.037-18.75l.085-.72-.04-.04a23.26 23.26 0 0 0 .044-1.35zm-219.03-4.17h-13.9v18.077H219.3l-13.302-15.3-.046.05-.65-.748-15.297 15.996h-44.5v-48.673h45.197l14.944 16.357.352-.365 14.604-16h36.852c7.152 0 15.16 1.765 18.196 9.042.365 1.44.577 3.043.577 4.863 0 13.906-9.735 16.7-20.16 16.7zm69.533-.697c1.4 2.08 2.085 4.867 2.085 9.04v9.732h-11.82v-6.256c0-2.786 0-7.65-2.1-9.74-1.387-2.08-4.172-2.08-8.34-2.08H292.93v18.077H281.1v-49.37h26.42c5.56 0 10.426 0 13.9 2.084 3.474 2.088 6.254 5.565 6.254 11.128 0 7.647-4.865 11.82-8.343 13.212 3.478 1.385 5.563 2.78 6.258 4.17zm47.98-20.17h-27.122v9.04H372.9v9.737h-26.424v9.736h27.122v10.43h-38.94v-49.37h38.94v10.427zM402.8 325.05h-22.25v-10.43h22.252c2.082 0 3.476 0 4.87-1.392.696-.697 1.387-2.085 1.387-3.477s-.7-2.778-1.387-3.475-2.1-1.4-4.176-1.4c-11.126-.696-24.337 0-24.337-15.296 0-6.954 4.172-14.604 16.7-14.604h22.945v11.82H397.23c-2.085 0-3.478 0-4.87.696s-1.387 2.1-1.387 3.478c0 2.087 1.387 2.783 2.778 3.473 1.394.697 2.783.697 4.172.697h6.26c6.26 0 10.43 1.4 13.2 4.173 2.087 2.087 3.478 5.564 3.478 10.43 0 10.427-6.258 15.298-18.078 15.298zm59.8-4.87c-2.778 2.785-7.648 4.87-14.604 4.87H425.74v-10.43h22.245c2.087 0 3.48 0 4.87-1.392.693-.697 1.4-2.085 1.4-3.477a5.32 5.32 0 0 0-1.391-3.475c-.696-.695-2.085-1.4-4.172-1.4-11.122-.696-24.337 0-24.337-15.295 0-6.6 3.78-12.58 13.106-14.352 1.115-.154 2.293-.253 3.583-.253h22.948v11.82h-21.557c-2.087 0-3.476 0-4.865.696-.7.697-1.396 2.1-1.396 3.478 0 2.087.696 2.783 2.785 3.473 1.4.697 2.78.697 4.172.697h6.256c3.04 0 5.337.375 7.44 1.114 1.926.697 8.302 3.55 9.728 10.994.124.78.215 1.594.215 2.495 0 4.173-1.4 7.65-4.17 10.427z" fill="#fff"/></svg>