<svg xmlns="http://www.w3.org/2000/svg" xmlns:xlink="http://www.w3.org/1999/xlink" viewBox="0 0 512 512"><path d="M512 402.282c0 16.716-13.55 30.267-30.265 30.267H30.265C13.55 432.55 0 418.996 0 402.282V109.717C0 93.002 13.55 79.45 30.265 79.45h451.47c16.716 0 30.265 13.55 30.265 30.266v292.565z" fill="#0099df"/><path d="M21.517 402.282V109.717c0-16.715 13.552-30.266 30.267-30.266h-21.52C13.55 79.45 0 93.003 0 109.717v292.565c0 16.716 13.55 30.267 30.265 30.267h21.52c-16.715 0-30.268-13.553-30.268-30.267z" opacity=".15" fill="#202121"/><path d="M334.687 234.577c0-18.028 8.304-34.115 21.296-44.65-9.872-8.005-22.455-12.806-36.156-12.806-31.73 0-57.45 25.722-57.45 57.454s25.72 57.45 57.45 57.45a57.19 57.19 0 0 0 36.156-12.806c-12.992-10.53-21.296-26.617-21.296-44.644z" fill="#ea001b"/><path d="M392.14 177.123c-13.703 0-26.28 4.8-36.156 12.806 12.994 10.534 21.298 26.62 21.298 44.65s-8.304 34.113-21.298 44.645a57.21 57.21 0 0 0 36.156 12.806c31.733 0 57.452-25.72 57.452-57.45s-25.72-57.455-57.452-57.455z" fill="#f79f1a"/><path d="M377.28 234.577c0-18.028-8.304-34.115-21.298-44.65-12.99 10.534-21.296 26.62-21.296 44.65s8.304 34.113 21.296 44.645c12.993-10.532 21.298-26.618 21.298-44.645z" fill="#ff5f01"/><path d="M165.843 261.21a7.31 7.31 0 0 1-7.308 7.308H67.852a7.31 7.31 0 0 1-7.308-7.308v-70.667a7.31 7.31 0 0 1 7.308-7.307h90.683a7.31 7.31 0 0 1 7.308 7.307v70.667z" fill="#ffc715"/><g fill="#34495e"><use xlink:href="#B"/><use xlink:href="#B" y="34.814"/></g><path d="M88.893 268.52h16.696v-85.284H88.893v20.078h-28.35V220h28.35v11.736h-28.35v16.695h28.35v11.73zM157.496 220h8.348v-16.696h-24.268v-20.078H124.88v56.857a8.35 8.35 0 0 0 8.348 8.348h32.616v-16.696h-24.268V220h15.92z" fill="#ffa617"/><path d="M75.92 261.21v-70.667a7.31 7.31 0 0 1 7.308-7.307H67.852a7.31 7.31 0 0 0-7.308 7.307v70.667a7.31 7.31 0 0 0 7.308 7.308H83.23a7.31 7.31 0 0 1-7.309-7.308z" opacity=".15" fill="#202121"/><defs ><path id="B" d="M166.843 331.106h-106.3a8.35 8.35 0 0 1-8.348-8.348 8.35 8.35 0 0 1 8.348-8.348h106.3a8.35 8.35 0 0 1 8.348 8.348 8.35 8.35 0 0 1-8.348 8.348z"/></defs></svg>