<svg xmlns="http://www.w3.org/2000/svg" viewBox="0 0 512 512"><path d="M512 402.28c0 16.716-13.55 30.267-30.265 30.267H30.265C13.55 432.55 0 418.997 0 402.28V109.717C0 93 13.55 79.45 30.265 79.45h451.47c16.716 0 30.265 13.55 30.265 30.266V402.28z" fill="#fff"/><path d="M113.64 258.035l-12.022-57.67c-2.055-7.953-8.035-10.32-15.507-10.632H30.993l-.49 2.635c42.93 10.407 71.334 35.513 83.138 65.668z" fill="#f79f1a"/><path d="M241.354 190.892H205.74L183.5 321.42h35.554zm-106 130.396l56-130.307h-37.7L118.82 280l-3.72-13.442c-6.83-16.17-26.35-39.446-49.266-54.098l31.85 108.863 37.66-.044zM342.93 278.75c.132-14.82-9.383-26.122-29.887-35.458-12.46-6.03-20.056-10.05-19.965-16.17 0-5.406 6.432-11.213 20.368-11.213 11.66-.18 20.057 2.367 26.624 5.003l3.218 1.475 4.826-28.277c-7.06-2.637-18.094-5.45-31.895-5.45-35.157 0-59.904 17.7-60.128 43.064-.224 18.763 17.692 29.216 31.18 35.47 13.847 6.374 18.493 10.453 18.404 16.17-.1 8.743-11.035 12.73-21.264 12.73-14.25 0-21.8-1.965-33.5-6.843l-4.55-2.1-4.998 29.25c8.303 3.63 23.668 6.8 39.618 6.933 37.387 0 61.7-17.466 61.957-44.592zm42.303 23.105l45.566.045 4.333 19.565h33L439.33 191.027h-27.472c-8.533 0-14.874 2.323-18.628 10.8l-52.845 119.63h37.392c-.003 0 6.07-16.08 7.456-19.6zm24.4-63.2c-.176.357 2.95-7.55 4.737-12.463l2.4 11.256 8.22 37.704h-29.528l14.16-36.497zM481.735 79.45H30.265C13.55 79.45 0 93 0 109.717v31.412h512v-31.412C512 93 498.45 79.45 481.735 79.45z" fill="#059bbf"/><path d="M481.735 432.55H30.265C13.55 432.55 0 418.998 0 402.283V370.87h512v31.412c0 16.715-13.55 30.266-30.265 30.266z" fill="#f79f1a"/><path d="M21.517 402.28V109.717c0-16.716 13.55-30.266 30.267-30.266h-21.52C13.55 79.45 0 93 0 109.717v292.565c0 16.716 13.55 30.267 30.265 30.267h21.52c-16.716 0-30.268-13.552-30.268-30.268z" opacity=".15" fill="#202121"/></svg>