<svg enable-background="new 0 0 49 60" height="512" viewBox="0 0 49 60" width="512" xmlns="http://www.w3.org/2000/svg"><path d="m37 60h-22c-.552 0-1-.447-1-1 0-2.757 2.243-5 5-5h14c2.757 0 5 2.243 5 5 0 .553-.448 1-1 1zm-20.829-2h19.657c-.413-1.164-1.525-2-2.829-2h-13.999c-1.304 0-2.416.836-2.829 2z"/><path d="m42 60h-32c-.552 0-1-.447-1-1s.448-1 1-1h32c.552 0 1 .447 1 1s-.448 1-1 1z"/><path d="m29 56h-6c-.552 0-1-.447-1-1v-51c0-2.206 1.794-4 4-4s4 1.794 4 4v51c0 .553-.448 1-1 1zm-5-2h4v-50c0-1.103-.897-2-2-2s-2 .897-2 2z"/><path d="m44.538 18h-15.538c-.552 0-1-.447-1-1v-10c0-.553.448-1 1-1h15.538c2.461 0 4.462 2.002 4.462 4.462v3.076c0 2.46-2.001 4.462-4.462 4.462zm-14.538-2h14.538c1.358 0 2.462-1.104 2.462-2.462v-3.076c0-1.358-1.104-2.462-2.462-2.462h-14.538z"/><path d="m23 28h-18.538c-2.461 0-4.462-2.002-4.462-4.462v-3.076c0-2.46 2.001-4.462 4.462-4.462h18.538c.552 0 1 .447 1 1v10c0 .553-.448 1-1 1zm-18.538-10c-1.358 0-2.462 1.104-2.462 2.462v3.076c0 1.358 1.104 2.462 2.462 2.462h17.538v-8z"/><path d="m41.538 38h-12.538c-.552 0-1-.447-1-1v-10c0-.553.448-1 1-1h12.538c2.461 0 4.462 2.002 4.462 4.462v3.076c0 2.46-2.001 4.462-4.462 4.462zm-11.538-2h11.538c1.358 0 2.462-1.104 2.462-2.462v-3.076c0-1.358-1.104-2.462-2.462-2.462h-11.538z"/></svg>